<?xml version="1.0" encoding="UTF-8" standalone="no"?>
<!-- Created with Inkscape (http://www.inkscape.org/) -->

<svg
   version="1.1"
   id="svg1"
   width="421.06351"
   height="514.90607"
   viewBox="0 0 421.06351 514.90607"
   sodipodi:docname="logo jolan.svg"
   inkscape:version="1.4.2 (f4327f4, 2025-05-13)"
   xmlns:inkscape="http://www.inkscape.org/namespaces/inkscape"
   xmlns:sodipodi="http://sodipodi.sourceforge.net/DTD/sodipodi-0.dtd"
   xmlns:xlink="http://www.w3.org/1999/xlink"
   xmlns="http://www.w3.org/2000/svg"
   xmlns:svg="http://www.w3.org/2000/svg">
  <defs
     id="defs1">
    <linearGradient
       id="linearGradient19"
       inkscape:collect="always">
      <stop
         style="stop-color:#98a882;stop-opacity:1;"
         offset="0.19753087"
         id="stop18" />
      <stop
         style="stop-color:#526739;stop-opacity:1;"
         offset="1"
         id="stop19" />
    </linearGradient>
    <linearGradient
       id="linearGradient17"
       inkscape:collect="always">
      <stop
         style="stop-color:#98a882;stop-opacity:1;"
         offset="0.19753087"
         id="stop16" />
      <stop
         style="stop-color:#526739;stop-opacity:1;"
         offset="1"
         id="stop17" />
    </linearGradient>
    <linearGradient
       id="linearGradient15"
       inkscape:collect="always">
      <stop
         style="stop-color:#98a882;stop-opacity:1;"
         offset="0.19753087"
         id="stop12" />
      <stop
         style="stop-color:#526739;stop-opacity:1;"
         offset="1"
         id="stop15" />
    </linearGradient>
    <linearGradient
       id="linearGradient11"
       inkscape:collect="always">
      <stop
         style="stop-color:#98a882;stop-opacity:1;"
         offset="0.19753087"
         id="stop10" />
      <stop
         style="stop-color:#526739;stop-opacity:1;"
         offset="1"
         id="stop11" />
    </linearGradient>
    <linearGradient
       id="linearGradient7"
       inkscape:collect="always">
      <stop
         style="stop-color:#98a882;stop-opacity:1;"
         offset="0"
         id="stop5" />
      <stop
         style="stop-color:#526739;stop-opacity:1;"
         offset="1"
         id="stop6" />
    </linearGradient>
    <linearGradient
       id="linearGradient4"
       inkscape:collect="always">
      <stop
         style="stop-color:#98a882;stop-opacity:1;"
         offset="0"
         id="stop3" />
      <stop
         style="stop-color:#526739;stop-opacity:1;"
         offset="1"
         id="stop4" />
    </linearGradient>
    <linearGradient
       id="linearGradient45">
      <stop
         style="stop-color:#5c4a3d;stop-opacity:1;"
         offset="0"
         id="stop44" />
      <stop
         style="stop-color:#a76b47;stop-opacity:1;"
         offset="0.33673471"
         id="stop46" />
      <stop
         style="stop-color:#f28c52;stop-opacity:1;"
         offset="0.67346942"
         id="stop45" />
    </linearGradient>
    <linearGradient
       id="swatch13">
      <stop
         style="stop-color:#5c4a3d;stop-opacity:1;"
         offset="0"
         id="stop13" />
      <stop
         style="stop-color:#f28c52;stop-opacity:1;"
         offset="0.67346942"
         id="stop14" />
    </linearGradient>
    <linearGradient
       inkscape:collect="always"
       xlink:href="#swatch13"
       id="linearGradient23"
       gradientUnits="userSpaceOnUse"
       x1="326.37314"
       y1="452.72617"
       x2="505.14938"
       y2="452.72617"
       gradientTransform="matrix(-1,0,0,1,1026.7265,-1.0787581)" />
    <linearGradient
       inkscape:collect="always"
       xlink:href="#linearGradient45"
       id="linearGradient21"
       gradientUnits="userSpaceOnUse"
       x1="326.37314"
       y1="452.72617"
       x2="505.14938"
       y2="452.72617"
       gradientTransform="matrix(-1,0,0,1,1013.2915,-0.37165133)" />
    <linearGradient
       inkscape:collect="always"
       xlink:href="#linearGradient4"
       id="linearGradient3"
       x1="522.42255"
       y1="186.26691"
       x2="522.42255"
       y2="216.24228"
       gradientUnits="userSpaceOnUse"
       gradientTransform="translate(-2.4939185,-2.7750091)" />
    <linearGradient
       inkscape:collect="always"
       xlink:href="#linearGradient7"
       id="linearGradient9"
       x1="434.17029"
       y1="221.65335"
       x2="466.07751"
       y2="221.65335"
       gradientUnits="userSpaceOnUse"
       gradientTransform="translate(-6.8637395,-2.6701096)" />
    <linearGradient
       inkscape:collect="always"
       xlink:href="#linearGradient11"
       id="linearGradient12"
       x1="357.20953"
       y1="268.5575"
       x2="407.97632"
       y2="268.5575"
       gradientUnits="userSpaceOnUse"
       gradientTransform="translate(-11.192822,-1.3834102)" />
    <linearGradient
       inkscape:collect="always"
       xlink:href="#linearGradient15"
       id="linearGradient16"
       x1="313.71423"
       y1="334.0788"
       x2="363.72577"
       y2="334.0788"
       gradientUnits="userSpaceOnUse"
       gradientTransform="translate(-3.391161,-8.3974872)" />
    <linearGradient
       inkscape:collect="always"
       xlink:href="#linearGradient17"
       id="linearGradient18"
       x1="593.48785"
       y1="203.98288"
       x2="593.48785"
       y2="234.30063"
       gradientUnits="userSpaceOnUse"
       gradientTransform="translate(2.9264463,-2.2080649)" />
    <linearGradient
       inkscape:collect="always"
       xlink:href="#linearGradient19"
       id="linearGradient20"
       x1="660.42419"
       y1="241.31485"
       x2="660.42419"
       y2="292.75363"
       gradientUnits="userSpaceOnUse"
       gradientTransform="translate(6.4077581,-3.5088062)" />
    <linearGradient
       inkscape:collect="always"
       xlink:href="#linearGradient15"
       id="linearGradient26"
       gradientUnits="userSpaceOnUse"
       x1="313.71423"
       y1="334.0788"
       x2="363.72577"
       y2="334.0788"
       gradientTransform="matrix(-0.99972279,-0.02354444,-0.02354444,0.99972279,1052.8854,-0.20266119)" />
  </defs>
  <sodipodi:namedview
     id="namedview1"
     pagecolor="#ffffff"
     bordercolor="#000000"
     borderopacity="0.25"
     inkscape:showpageshadow="2"
     inkscape:pageopacity="0.0"
     inkscape:pagecheckerboard="0"
     inkscape:deskcolor="#d1d1d1"
     showgrid="false"
     inkscape:zoom="0.46209428"
     inkscape:cx="1113.4091"
     inkscape:cy="572.39401"
     inkscape:window-width="1920"
     inkscape:window-height="1009"
     inkscape:window-x="-8"
     inkscape:window-y="-8"
     inkscape:window-maximized="1"
     inkscape:current-layer="g88"
     showguides="true"
     inkscape:export-bgcolor="#ffffff00">
    <inkscape:page
       x="0"
       y="0"
       width="421.06351"
       height="514.90607"
       id="page2"
       margin="0"
       bleed="0" />
  </sodipodi:namedview>
  <g
     inkscape:groupmode="layer"
     id="layer4"
     inkscape:label="Logo principal couleur"
     inkscape:export-filename="..\Logo principal couleur svg.png"
     inkscape:export-xdpi="455.98999"
     inkscape:export-ydpi="455.98999"
     transform="translate(-116.28732,-69.36602)">
    <g
       inkscape:groupmode="layer"
       id="layer3"
       inkscape:label="Texte"
       style="display:inline">
      <g
         id="g67"
         transform="translate(-186.54524,-102.86273)"
         inkscape:export-filename="..\ogo Jolan\Logo principal couleur png.png"
         inkscape:export-xdpi="455.98999"
         inkscape:export-ydpi="455.98999">
        <path
           id="path23"
           style="display:inline;fill:url(#linearGradient23);fill-opacity:1;stroke:none"
           d="m 530.95516,329.46672 c -0.18775,0.002 -0.39598,0.10407 -0.62891,0.31445 -4.05116,3.65911 -5.81576,7.72082 -7.40234,13.1211 -1.41566,4.81837 -1.34466,9.1747 -1.34766,13.79492 -0.003,3.90599 1.12305,11.66406 1.12305,11.66406 0,0 1.64382,9.69498 2.80273,14.46875 1.28661,5.29982 2.75354,10.56935 4.59961,15.70117 1.95575,5.43673 6.8418,15.92774 6.8418,15.92774 l 5.26953,14.91601 4.82422,15.25391 4.03711,16.93555 2.95508,12.05273 -9.23633,4.88281 c 0,0 -8.6179,4.54457 -12.44922,7.51367 -2.11054,1.63557 -5.71875,5.60743 -5.71875,5.60743 -2.5724,3.04012 -4.71761,5.98371 -4.82422,10.09375 -0.5404,20.83367 1.3623,41.51556 7.85156,61.57422 l 9.64453,0.33593 v -3.58789 c -0.79439,-16.44389 -0.44726,-51.03125 -0.44726,-51.03125 l 2.35547,-1.00976 c 10.77995,-3.24352 21.7872,-6.69137 33.19726,-6.16797 19.61517,13.29115 39.43248,26.01246 59.66602,38.35742 12.36906,7.21726 53.79833,42.71096 65.83789,30.97461 0,0 0.004,-0.004 0.006,-0.006 0.009,-0.009 0.0273,-0.0273 0.0273,-0.0273 h 0.002 v -0.002 h 0.002 l 0.004,-0.004 c 0.002,-0.003 0.005,-0.005 0.008,-0.008 3.2e-4,-4e-4 -3.2e-4,-0.002 0,-0.002 l 0.004,-0.004 0.002,-0.002 0.002,-0.002 v -0.002 c 0.003,-0.003 0.007,-0.006 0.01,-0.01 l 0.002,-0.002 v -0.002 c 5.9e-4,-6.8e-4 10e-4,-10e-4 0.002,-0.002 l 0.002,-0.002 c 0.003,-0.004 0.003,-0.007 0.006,-0.0117 0.0181,-0.0416 0.0215,-0.0923 0.0312,-0.13867 0.0126,-0.0604 0.0274,-0.12061 0.0352,-0.18164 6.8e-4,-0.005 0.002,-0.0103 0.004,-0.0156 -0.002,-0.009 -0.004,-0.0183 -0.006,-0.0273 -0.003,-0.016 -0.007,-0.031 -0.01,-0.0469 -0.002,-0.009 -0.004,-0.0168 -0.006,-0.0254 -0.002,-0.004 -0.004,-0.009 -0.006,-0.0137 -0.0218,-0.0493 -0.0506,-0.0954 -0.0801,-0.14063 -0.0257,-0.0394 -0.0451,-0.0869 -0.084,-0.11328 -1.22506,-0.82963 -4.66401,-3.09156 -8.71875,-5.83007 -5.09788,-3.44304 -11.18265,-7.61956 -15.12891,-10.5586 -9.74459,-7.25744 -28.375,-22.88086 -28.375,-22.88086 l -26.35742,-23.77734 c -17.7383,-17.7383 -55.13411,-49.5379 -27.81445,-71.66602 26.45695,-21.42935 38.06351,-22.71558 44.18945,-29.94531 0,0 1.07792,-1.8683 0.56055,-2.58008 -0.44181,-0.60783 -1.50822,-0.38568 -2.24219,-0.22461 -1.44043,0.31611 -5.36584,1.78582 -6.69726,2.41992 -5.11585,2.43648 -13.79297,5.01758 -13.79297,5.01758 -32.91391,8.70145 -47.95696,5.00749 -59.47657,-4.18554 -4.8979,-4.49807 -9.127,-9.14494 -12.44921,-15.0293 0,0 -4.6193,-9.1741 -6.28125,-14.01758 -1.73629,-5.06015 -2.9133,-10.31654 -3.81446,-15.58984 -1.67897,-9.82478 0.30644,-32.08442 -2.50976,-32.05469 z"
           sodipodi:nodetypes="cssccssccccccscscccccccsscccccsccccccccsccssccsccasssccscssscccsscc"
           transform="translate(0,5.2041088)" />
        <path
           id="ellipse23"
           style="display:inline;fill:#f28c52;stroke-width:1.26629"
           transform="matrix(-0.92178394,-0.38770398,-0.4494326,0.89331424,0,5.2041088)"
           d="m -672.76519,131.72408 a 18.346081,21.63633 0 0 1 -18.34608,21.63632 18.346081,21.63633 0 0 1 -18.34608,-21.63632 18.346081,21.63633 0 0 1 18.34608,-21.63633 18.346081,21.63633 0 0 1 18.34608,21.63633 z" />
        <path
           id="path21"
           style="fill:url(#linearGradient21);fill-opacity:1;stroke:none"
           d="m 517.52013,330.17383 c -0.18775,0.002 -0.39598,0.10407 -0.62891,0.31445 -4.05116,3.65911 -5.81576,7.72082 -7.40234,13.1211 -1.41566,4.81837 -1.34466,9.1747 -1.34766,13.79492 -0.003,3.90599 1.12305,11.66406 1.12305,11.66406 0,0 1.64382,9.69498 2.80273,14.46875 1.28661,5.29982 2.75354,10.56935 4.59961,15.70117 1.95575,5.43673 6.8418,15.92774 6.8418,15.92774 l 5.26953,14.91601 4.82422,15.25391 4.03711,16.93555 2.95508,12.05273 -9.23633,4.88281 c 0,0 -8.6179,4.54457 -12.44922,7.51367 -2.11054,1.63557 -5.71875,5.60743 -5.71875,5.60743 -2.5724,3.04012 -4.71761,5.98371 -4.82422,10.09375 -0.5404,20.83367 1.3623,41.51556 7.85156,61.57422 l 9.64453,0.33593 v -3.58789 c -0.79439,-16.44389 -0.44726,-51.03125 -0.44726,-51.03125 l 2.35547,-1.00976 c 10.77995,-3.24352 21.7872,-6.69137 33.19726,-6.16797 19.61517,13.29115 39.43248,26.01246 59.66602,38.35742 12.36906,7.21726 53.79833,42.71096 65.83789,30.97461 0,0 0.004,-0.004 0.006,-0.006 0.009,-0.009 0.0273,-0.0273 0.0273,-0.0273 h 0.002 v -0.002 h 0.002 l 0.004,-0.004 c 0.002,-0.003 0.005,-0.005 0.008,-0.008 3.2e-4,-4e-4 -3.2e-4,-0.002 0,-0.002 l 0.004,-0.004 0.002,-0.002 0.002,-0.002 v -0.002 c 0.003,-0.003 0.007,-0.006 0.01,-0.01 l 0.002,-0.002 v -0.002 c 5.9e-4,-6.8e-4 10e-4,-10e-4 0.002,-0.002 l 0.002,-0.002 c 0.003,-0.004 0.003,-0.007 0.006,-0.0117 0.0181,-0.0416 0.0215,-0.0923 0.0312,-0.13867 0.0126,-0.0604 0.0274,-0.12061 0.0352,-0.18164 6.8e-4,-0.005 0.002,-0.0103 0.004,-0.0156 -0.002,-0.009 -0.004,-0.0183 -0.006,-0.0273 -0.003,-0.016 -0.007,-0.031 -0.01,-0.0469 -0.002,-0.009 -0.004,-0.0168 -0.006,-0.0254 -0.002,-0.004 -0.004,-0.009 -0.006,-0.0137 -0.0218,-0.0493 -0.0506,-0.0954 -0.0801,-0.14063 -0.0257,-0.0394 -0.0451,-0.0869 -0.084,-0.11328 -1.22506,-0.82963 -4.66401,-3.09156 -8.71875,-5.83007 -5.09788,-3.44304 -11.18265,-7.61956 -15.12891,-10.5586 -9.74459,-7.25744 -28.375,-22.88086 -28.375,-22.88086 L 607.84882,508.0282 c -17.7383,-17.7383 -55.13411,-49.5379 -27.81445,-71.66602 26.45695,-21.42935 38.06351,-22.71558 44.18945,-29.94531 0,0 1.07792,-1.8683 0.56055,-2.58008 -0.44181,-0.60783 -1.50822,-0.38568 -2.24219,-0.22461 -1.44043,0.31611 -5.36584,1.78582 -6.69726,2.41992 -5.11585,2.43648 -13.79297,5.01758 -13.79297,5.01758 -32.91391,8.70145 -47.95696,5.00749 -59.47657,-4.18554 -4.8979,-4.49807 -9.127,-9.14494 -12.44921,-15.0293 0,0 -4.6193,-9.1741 -6.28125,-14.01758 -1.73629,-5.06015 -2.9133,-10.31654 -3.81446,-15.58984 -1.67897,-9.82478 0.30644,-32.08442 -2.50976,-32.05469 z"
           sodipodi:nodetypes="cssccssccccccscscccccccsscccccsccccccccsccssccsccasssccscssscccsscc"
           transform="matrix(-1,0,0,1,1013.2181,4.4969988)" />
        <path
           id="ellipse21"
           style="fill:#f28c52;stroke-width:1.26629"
           transform="matrix(0.92178394,-0.38770398,0.4494326,0.89331424,1013.2181,4.4969988)"
           d="m -661.05425,137.59827 a 18.346081,21.63633 0 0 1 -18.34608,21.63633 18.346081,21.63633 0 0 1 -18.34608,-21.63633 18.346081,21.63633 0 0 1 18.34608,-21.63633 18.346081,21.63633 0 0 1 18.34608,21.63633 z" />
        <path
           style="display:inline;fill:#5c4a3d;fill-opacity:1;stroke:none"
           d="m 353.06621,578.72352 48.89989,-7.17797 c 0,0 46.8757,-5.60651 70.4338,-6.72934 25.39314,-1.21029 50.87073,-1.16704 76.26589,0 22.80237,1.04789 45.48816,3.90536 68.19067,6.28072 19.16759,2.00551 57.42373,6.72934 57.42373,6.72934 z"
           id="path7"
           sodipodi:nodetypes="ccssscc" />
        <path
           id="path72"
           style="display:inline;fill:#98a882;fill-opacity:1;stroke:none;stroke-width:9.26121;stroke-linecap:round;stroke-linejoin:round;stroke-dasharray:none;stroke-opacity:1;paint-order:stroke fill markers"
           d="M 513.94813,256.7515 A 151.28044,151.28044 0 0 0 362.87195,400.15189 153.43544,146.53946 0 0 1 514.19617,277.8433 153.43544,146.53946 0 0 1 664.76258,396.1851 151.28044,151.28044 0 0 0 513.94813,256.7515 Z"
           inkscape:transform-center-y="71.962247"
           inkscape:transform-center-x="1.8325938"
           transform="translate(2.4003927e-5)" />
        <path
           id="path1"
           style="display:inline;mix-blend-mode:normal;fill:url(#linearGradient3);fill-opacity:1;stroke:none;stroke-width:0.5;stroke-dasharray:none;stroke-opacity:0.666667"
           d="m 516.20411,167.75432 c 19.6413,19.69766 26.41539,37.34701 6.34375,61.54102 l -2.02539,-0.22461 0.79883,-19.92969 c 0.001,-0.0215 4e-5,-0.043 -0.002,-0.0644 l 0.002,-0.0234 c 0.002,-0.0319 0.001,-0.0639 -0.002,-0.0957 l -1.01172,-8.74805 v -0.002 c -0.0392,-0.29819 -0.31065,-0.50961 -0.60937,-0.47461 -0.29876,0.0344 -0.51448,0.30234 -0.48438,0.60156 0,0 0.93869,5.82279 1.00196,8.76172 0.13189,6.12691 -1.16553,17.81442 -1.39063,19.78711 l -1.98633,-0.2207 c -17.45184,-26.9669 -13.29563,-34.79516 -0.63476,-60.90821 z"
           inkscape:transform-center-x="2.7934292"
           inkscape:transform-center-y="-47.977648"
           transform="matrix(-1,0,0,1,1034.2191,4.47443)" />
        <path
           id="path46"
           style="display:inline;mix-blend-mode:normal;fill:url(#linearGradient9);fill-opacity:1;stroke:none;stroke-width:8.96091"
           d="m 427.30982,198.95374 c 4.69358,4.06649 36.58977,10.47153 31.31775,35.86814 l -0.30972,3.393 -8.41055,-14.3322 c -0.009,-0.0155 -0.0211,-0.0291 -0.0328,-0.0428 l -0.007,-0.0184 c -0.0129,-0.0234 -0.0291,-0.0444 -0.047,-0.0645 l -4.83225,-5.54585 -10e-4,-0.002 c -0.16862,-0.18649 -0.49223,-0.18538 -0.72635,0.002 -0.23445,0.18739 -0.29295,0.49221 -0.13143,0.68436 0,0 3.43846,3.54627 4.83031,5.56073 2.90161,4.19963 7.13992,13.05799 7.85017,14.55652 l -3.04423,-1.28118 c -22.30557,-7.67631 -25.40861,-32.58746 -26.45916,-38.77657 l 0.002,-0.001 z"
           inkscape:transform-center-x="-70.262587"
           inkscape:transform-center-y="-30.224118"
           transform="matrix(-1,0,0,1,1034.2191,4.47443)" />
        <path
           id="path1-6"
           style="display:inline;mix-blend-mode:normal;fill:url(#linearGradient12);fill-opacity:1;stroke:none;stroke-width:9.819"
           d="m 346.01696,247.70911 c 27.74306,-2.02507 45.53622,4.36175 50.76654,35.35956 l -1.49208,1.38793 -14.57824,-13.61271 c -0.0152,-0.015 -0.0325,-0.0281 -0.0501,-0.0405 l -0.0162,-0.0168 c -0.0229,-0.0224 -0.0478,-0.0424 -0.0738,-0.0609 l -7.28822,-4.94305 -0.002,-0.002 c -0.2515,-0.16491 -0.58886,-0.0972 -0.7573,0.15193 -0.16892,0.24881 -0.10672,0.58712 0.13963,0.75961 0,0 5.02425,3.08915 7.29221,4.95937 4.7281,3.8989 12.73628,12.50995 14.08397,13.968 l -1.46363,1.3609 c -12.89026,-1.7735 -21.08705,-4.18367 -27.04345,-8.19415 -8.74792,-5.88998 -18.30681,-14.81166 -19.51758,-31.07777 z"
           sodipodi:nodetypes="sccccccccccsccsss"
           inkscape:transform-center-x="-137.79359"
           inkscape:transform-center-y="13.280295"
           transform="matrix(-1,0,0,1,1034.2191,4.47443)" />
        <path
           id="path46-79"
           style="display:inline;mix-blend-mode:normal;fill:url(#linearGradient16);fill-opacity:1;stroke:none;stroke-width:8.96091"
           d="m 310.32382,325.92577 c 6.12969,-0.99648 31.4893,-21.37495 47.60484,-1.05081 l 2.40596,2.4124 -16.39196,-2.7299 c -0.0177,-0.003 -0.0358,-0.002 -0.0539,-0.002 l -0.0188,-0.006 c -0.0262,-0.005 -0.0529,-0.006 -0.0796,-0.005 l -7.35412,0.15477 -0.002,-4e-4 c -0.25123,0.01 -0.45777,0.25902 -0.46364,0.55912 -0.006,0.30007 0.19007,0.54034 0.44109,0.53952 0,0 4.92593,-0.36647 7.36429,-0.14375 5.08336,0.46436 14.59951,2.88857 16.20501,3.30382 l -2.93457,1.51564 c -20.18856,12.20188 -41.29926,-1.38241 -46.72336,-4.54275 l 4e-4,-0.002 z"
           inkscape:transform-center-x="-181.66651"
           inkscape:transform-center-y="78.801626"
           transform="matrix(-1,0,0,1,1034.2191,4.47443)" />
        <path
           id="path46-7"
           style="display:inline;mix-blend-mode:normal;fill:url(#linearGradient18);fill-opacity:1;stroke:none;stroke-width:8.96091"
           d="m 611.56877,196.16495 c -4.47605,4.30478 -35.99654,12.35773 -29.41263,37.44627 l 0.48552,3.37232 7.65484,-14.74966 c 0.008,-0.016 0.0195,-0.0302 0.0305,-0.0444 l 0.007,-0.0188 c 0.0117,-0.024 0.0268,-0.0459 0.0436,-0.0669 l 4.5377,-5.78933 10e-4,-0.002 c 0.1587,-0.195 0.48193,-0.21069 0.72549,-0.0353 0.24386,0.17495 0.31811,0.47633 0.16679,0.67661 0,0 -3.24964,3.72006 -4.53498,5.80409 -2.67958,4.34465 -6.45211,13.41118 -7.08357,14.94458 l 2.97359,-1.43756 c 21.87678,-8.82442 23.68184,-33.86311 24.40954,-40.09842 l -0.002,-0.001 z"
           inkscape:transform-center-x="73.101362"
           inkscape:transform-center-y="-31.035878"
           transform="matrix(-1,0,0,1,1034.2191,4.47443)" />
        <path
           id="path1-6-5"
           style="display:inline;mix-blend-mode:normal;fill:url(#linearGradient20);fill-opacity:1;stroke:none;stroke-width:9.819"
           d="m 692.55133,244.60499 c -27.69888,-2.55949 -45.61185,3.48315 -51.43873,34.37439 l 1.46505,1.41643 14.83794,-13.32916 c 0.0155,-0.0147 0.033,-0.0274 0.0508,-0.0396 l 0.0165,-0.0166 c 0.0233,-0.0219 0.0486,-0.0415 0.0749,-0.0594 l 7.38215,-4.80165 0.002,-0.001 c 0.25464,-0.16004 0.59063,-0.0859 0.75424,0.1665 0.1641,0.25202 0.0954,0.58906 -0.15425,0.75677 0,0 -5.08287,2.99173 -7.38646,4.81788 -4.80236,3.80704 -12.97505,12.26212 -14.3506,13.69393 l 1.43713,1.38885 c 12.92205,-1.52469 21.16377,-3.77641 27.19638,-7.67132 8.85982,-5.72025 18.58892,-14.45601 20.11302,-30.69577 z"
           sodipodi:nodetypes="sccccccccccsccsss"
           inkscape:transform-center-x="140.03773"
           inkscape:transform-center-y="13.55732"
           transform="matrix(-1,0,0,1,1034.2191,4.47443)" />
        <path
           id="path46-79-1"
           style="display:inline;mix-blend-mode:normal;fill:url(#linearGradient26);fill-opacity:1;stroke:none;stroke-width:8.96091"
           d="m 731.38597,326.64167 c -6.10453,-1.14052 -30.97731,-22.11042 -47.56691,-2.17134 l -2.46208,2.35508 16.45168,-2.3432 c 0.0177,-0.003 0.0359,-0.001 0.0539,-7.3e-4 l 0.019,-0.006 c 0.0263,-0.005 0.053,-0.005 0.0796,-0.003 l 7.34844,0.32788 0.002,-3.6e-4 c 0.25092,0.0159 0.45154,0.26973 0.45034,0.56989 -10e-4,0.30012 -0.20274,0.53571 -0.45367,0.52898 0,0 -4.91594,-0.48235 -7.35886,-0.3171 -5.09288,0.34454 -14.66348,2.54403 -16.27831,2.92137 l 2.89807,1.58431 c 19.89568,12.67383 41.32037,-0.40966 46.81737,-3.44141 l -3.6e-4,-0.002 z"
           inkscape:transform-center-x="182.87655"
           inkscape:transform-center-y="79.230578"
           transform="matrix(-1,0,0,1,1034.2191,4.47443)" />
        <g
           id="g1">
          <path
             id="path38"
             style="font-weight:300;font-size:42.6667px;line-height:0.6;font-family:Corbel;-inkscape-font-specification:'Corbel Light';text-align:center;letter-spacing:-2px;text-anchor:middle;display:inline;fill:#f28c52;stroke:#f28c52;stroke-width:0.985948;stroke-linecap:round;stroke-linejoin:round;stroke-dasharray:none;stroke-opacity:1;paint-order:stroke fill markers"
             d="m 569.49697,657.48983 c -2.74721,0 -4.97381,0.70593 -6.6785,2.1191 -1.69059,1.41317 -2.53588,3.28872 -2.53588,5.62536 0,1.62304 0.38038,2.91661 1.14115,3.88205 0.76076,0.95143 1.69828,1.65738 2.81126,2.1191 1.11297,0.44775 2.58454,0.90379 4.41602,1.36551 2.11324,0.57367 3.57908,1.08305 4.39619,1.53079 0.81713,0.44773 1.45683,1.04304 1.92173,1.7846 0.47901,0.74156 0.71918,1.67837 0.71918,2.8117 0,2.25268 -0.70508,3.84774 -2.11391,4.78518 -1.39475,0.93747 -3.36005,1.40683 -5.89595,1.40683 -1.02845,0 -2.32323,-0.19653 -3.88704,-0.58831 -1.43192,-0.35873 -2.49804,-0.72949 -3.19759,-1.11169 l 2.629,2.82153 -0.0931,0.006 c 0.0919,0.0231 0.18548,0.0456 0.28132,0.0689 1.43701,0.34979 2.81634,0.52535 4.14063,0.52535 3.21213,0 5.68462,-0.70025 7.41747,-2.09943 1.74694,-1.41317 2.62109,-3.37835 2.62109,-5.89687 0,-1.721 -0.40923,-3.07951 -1.22635,-4.07292 -0.80303,-1.00742 -1.75399,-1.73434 -2.85288,-2.18207 -1.09887,-0.46172 -2.6204,-0.95777 -4.56459,-1.48946 -1.73286,-0.47571 -3.03536,-0.89547 -3.90883,-1.25926 -0.87347,-0.36378 -1.57084,-0.88279 -2.09211,-1.5544 -0.50718,-0.6716 -0.76077,-1.59506 -0.76077,-2.77037 0,-1.86092 0.58399,-3.35104 1.75332,-4.47038 1.18342,-1.11934 2.99509,-1.67836 5.43236,-1.67836 1.02845,0.014 1.97169,0.11129 2.83108,0.29318 0.87347,0.18189 1.61311,0.39942 2.21891,0.65127 0.59253,0.22736 1.29462,0.5253 2.10597,0.89329 l -2.14362,-2.85498 h -0.002 c -1.59241,-0.44096 -3.21896,-0.66111 -4.88357,-0.66111 z" />
          <path
             id="path37"
             style="font-weight:300;font-size:42.6667px;line-height:0.6;font-family:Corbel;-inkscape-font-specification:'Corbel Light';text-align:center;letter-spacing:-2px;text-anchor:middle;display:inline;fill:#f28c52;stroke:#f28c52;stroke-width:0.985948;stroke-linecap:round;stroke-linejoin:round;stroke-dasharray:none;stroke-opacity:1;paint-order:stroke fill markers"
             d="m 548.68089,657.48994 c -2.74721,0 -4.97382,0.70593 -6.6785,2.1191 -1.6906,1.41317 -2.5359,3.28872 -2.5359,5.62536 0,1.62304 0.38038,2.91661 1.14115,3.88205 0.76078,0.95143 1.6983,1.65738 2.81128,2.1191 1.11297,0.44775 2.58453,0.90379 4.41601,1.36551 2.11324,0.57368 3.57909,1.08305 4.39621,1.5308 0.81712,0.44772 1.4588,1.04304 1.9237,1.7846 0.479,0.74156 0.71718,1.67836 0.71718,2.81169 0,2.25268 -0.70309,3.84774 -2.11192,4.78518 -1.39475,0.93745 -3.36005,1.40683 -5.89594,1.40683 -1.02845,0 -2.32522,-0.19655 -3.88902,-0.5883 -1.46976,-0.36822 -2.55291,-0.74829 -3.25109,-1.14121 l 2.67655,2.87072 c 0.0739,0.0185 0.11777,0.0364 0.19416,0.0551 1.43701,0.34979 2.81832,0.52536 4.1426,0.52536 3.21214,0 5.68462,-0.70026 7.41748,-2.09944 1.74694,-1.41316 2.6191,-3.37835 2.6191,-5.89686 0,-1.72101 -0.40725,-3.07951 -1.22436,-4.07292 -0.80303,-1.00742 -1.75399,-1.73434 -2.85288,-2.18207 -1.09888,-0.46172 -2.62041,-0.95778 -4.56459,-1.48946 -1.73286,-0.47572 -3.03735,-0.89548 -3.91082,-1.25926 -0.87348,-0.36379 -1.57084,-0.88279 -2.09211,-1.55441 -0.50718,-0.6716 -0.76076,-1.59505 -0.76076,-2.77037 0,-1.86091 0.58597,-3.35103 1.7553,-4.47037 1.18342,-1.11934 2.99311,-1.67836 5.43037,-1.67836 1.02845,0.014 1.97169,0.11128 2.83109,0.29317 0.87347,0.1819 1.6131,0.39942 2.21889,0.65127 0.61989,0.23786 1.35953,0.55268 2.21891,0.94445 v -0.10625 l -2.06041,-2.7448 h -0.002 c -1.65429,-0.4776 -3.34745,-0.71619 -5.0797,-0.71619 z" />
          <path
             id="path36"
             style="font-weight:300;font-size:42.6667px;line-height:0.6;font-family:Corbel;-inkscape-font-specification:'Corbel Light';text-align:center;letter-spacing:-2px;text-anchor:middle;display:inline;fill:#f28c52;stroke:#f28c52;stroke-width:1;stroke-linecap:round;stroke-linejoin:round;stroke-dasharray:none;stroke-opacity:1;paint-order:stroke fill markers"
             d="m 520.92083,657.75862 0.10099,0.006 -1.721,2.13822 v 24.51478 l 1.77843,2.21718 h 15.14239 v -1.72717 H 521.15846 V 672.704 h 13.03522 v -1.72717 h -13.03522 v -11.49089 h 14.23932 v -1.72717 z" />
          <path
             id="path35"
             style="font-weight:300;font-size:42.6667px;line-height:0.6;font-family:Corbel;-inkscape-font-specification:'Corbel Light';text-align:center;letter-spacing:-2px;text-anchor:middle;display:inline;fill:#f28c52;stroke:#f28c52;stroke-width:1;stroke-linecap:round;stroke-linejoin:round;stroke-dasharray:none;stroke-opacity:1;paint-order:stroke fill markers"
             d="m 492.47191,657.75877 v 28.87603 h 1.85962 v -15.87463 c 0,-4.93877 -0.0845,-8.31596 -0.2535,-10.13019 h 0.0831 l 5.28182,7.64574 12.75993,18.35908 h 1.60415 v -28.87603 h -0.006 l -1.85171,2.17466 v 14.844 c 0,4.14684 0.098,7.12738 0.29509,8.94164 h -0.12675 l -5.3234,-7.7976 -12.71637,-18.16269 z" />
          <path
             id="path34"
             style="font-weight:300;font-size:42.6667px;line-height:0.6;font-family:Corbel;-inkscape-font-specification:'Corbel Light';text-align:center;letter-spacing:-2px;text-anchor:middle;display:inline;fill:#f28c52;stroke:#f28c52;stroke-width:1;stroke-linecap:round;stroke-linejoin:round;stroke-dasharray:none;stroke-opacity:1;paint-order:stroke fill markers"
             d="m 470.13262,657.75878 -1.7923,1.76969 h 9.72393 v 27.10633 h 1.85963 v -27.10633 h 9.78136 v -1.76969 z" />
          <path
             id="path33"
             style="font-weight:300;font-size:42.6667px;line-height:0.6;font-family:Corbel;-inkscape-font-specification:'Corbel Light';text-align:center;letter-spacing:-2px;text-anchor:middle;display:inline;fill:#f28c52;stroke:#f28c52;stroke-width:1;stroke-linecap:round;stroke-linejoin:round;stroke-dasharray:none;stroke-opacity:1;paint-order:stroke fill markers"
             d="m 465.55385,657.75877 -1.85368,1.64416 v 27.23187 h 0.0139 l 1.84576,-1.74337 v -27.13266 z" />
          <path
             id="path15"
             style="font-weight:300;font-size:42.6667px;line-height:0.6;font-family:Corbel;-inkscape-font-specification:'Corbel Light';text-align:center;letter-spacing:-2px;text-anchor:middle;display:inline;fill:#f28c52;stroke:#f28c52;stroke-width:1;stroke-linecap:round;stroke-linejoin:round;stroke-dasharray:none;stroke-opacity:1;paint-order:stroke fill markers"
             d="m 446.25453,657.7588 -1.6695,2.07747 -0.002,-0.0709 v 26.86943 h 1.85765 v -14.01786 h 12.75994 v -1.72718 h -12.75994 v -11.40382 h 13.98582 v -1.72717 z" />
        </g>
        <g
           id="g66"
           inkscape:label="SERENITY">
          <path
             style="font-weight:bold;font-size:64px;line-height:0.6;font-family:Corbel;-inkscape-font-specification:'Corbel Bold';text-align:center;letter-spacing:2.5px;text-anchor:middle;display:inline;fill:#98a882;stroke:none;stroke-linecap:round;stroke-linejoin:round;paint-order:stroke fill markers"
             d="m 645.02492,619.39045 c 3.68662,-1.40174 6.8073,-15.59277 11.125,-18 4.3177,-2.40723 8.5,0 8.5,0 l -15.84375,24.96875 v 16.84375 h -7.65625 V 626.3592 l -15.84375,-24.96875 c 0,0 4.1823,-2.40723 8.5,0 4.3177,2.40723 7.33063,16.75989 11.125,18 3.79437,1.24011 -3.59287,1.40174 0.0937,0 z"
             id="path32"
             sodipodi:nodetypes="zzcccccczzzz" />
          <path
             style="font-weight:bold;font-size:64px;line-height:0.6;font-family:Corbel;-inkscape-font-specification:'Corbel Bold';text-align:center;letter-spacing:2.5px;text-anchor:middle;display:inline;fill:#98a882;stroke:none;stroke-linecap:round;stroke-linejoin:round;paint-order:stroke fill markers"
             d="m 607.77492,642.66801 h -7.65625 c 0,0 0.12556,-30.09974 0,-35.40625 -0.12556,-5.30651 -13.5,0 -13.5,0 v -6.40625 h 34.625 v 6.40625 c 0,0 -13.49925,-4.99807 -13.46875,0 0.0305,4.99807 0,35.40625 0,35.40625 z"
             id="path31"
             sodipodi:nodetypes="cczcccczc" />
          <path
             style="font-weight:bold;font-size:64px;line-height:0.6;font-family:Corbel;-inkscape-font-specification:'Corbel Bold';text-align:center;letter-spacing:2.5px;text-anchor:middle;display:inline;fill:#98a882;stroke:none;stroke-linecap:round;stroke-linejoin:round;paint-order:stroke fill markers"
             d="m 543.24367,620.29301 c 3.47977,5.15794 5.52818,10.62631 7.3125,11.375 1.78432,0.74869 -0.10616,2.6753 0.1875,0 0.29366,-2.6753 -0.29393,-6.73924 -0.375,-11.875 -0.0811,-5.13576 0,-18.9375 0,-18.9375 h 7.65625 v 41.8125 h -8.03125 c -5.86183,-3.83612 -17.03292,-29.34568 -21.0625,-30.84375 -4.02958,-1.49807 0.92141,-5.31643 -0.1875,0 -1.10891,5.31643 -0.43266,21.50142 0.4225,30.84375 h -7.70378 v -41.8125 h 8.03125 c 0,0 10.27023,14.27956 13.75,19.4375 z"
             id="path29"
             sodipodi:nodetypes="zzzzcccczzcccczz" />
          <path
             style="font-weight:bold;font-size:64px;line-height:0.6;font-family:Corbel;-inkscape-font-specification:'Corbel Bold';text-align:center;letter-spacing:2.5px;text-anchor:middle;display:inline;fill:#98a882;stroke:none;stroke-linecap:round;stroke-linejoin:round;paint-order:stroke fill markers"
             d="m 490.27492,636.26176 c 0.14826,5.10475 20.5625,0 20.5625,0 v 6.40625 h -28.21875 v -41.8125 h 27.09375 v 6.40625 c 0,0 -19.10499,-4.858 -19.4375,0 -0.33251,4.858 -0.43942,6.70959 0,10.8125 0.43942,4.10291 16.6875,0 16.6875,0 v 6.40625 c 0,0 -16.34942,-4.64807 -16.6875,0 -0.33808,4.64807 -0.14826,6.6765 0,11.78125 z"
             id="path28"
             sodipodi:nodetypes="zcccccczzcczz" />
          <path
             id="path26"
             style="font-weight:bold;font-size:64px;line-height:0.6;font-family:Corbel;-inkscape-font-specification:'Corbel Bold';text-align:center;letter-spacing:2.5px;text-anchor:middle;display:inline;fill:#98a882;stroke:none;stroke-width:0.972004;stroke-linecap:round;stroke-linejoin:round;paint-order:stroke fill markers"
             d="m 440.73253,601.01742 v 41.48869 h 7.28907 c 0,0 -1.41511,-12.91894 0,-16.06099 1.41511,-3.14205 3.43819,-2.25344 4.99804,0 1.55985,2.25344 10.83203,16.06099 10.83203,16.06099 h 8.74805 l -11.84375,-17.05425 v -0.12415 c 3.21356,-0.97158 5.58584,-2.45836 7.11328,-4.46354 1.54727,-2.02586 2.32032,-4.48611 2.32032,-7.3802 0,-2.77004 -0.63474,-5.06444 -1.9043,-6.88357 -1.26955,-1.83981 -3.07528,-3.22595 -5.41602,-4.1562 -1.22989,-0.47546 -2.70779,-0.82692 -4.43359,-1.05431 -1.7258,-0.24806 -3.59023,-0.37247 -5.59375,-0.37247 z m 8.79496,5.63386 c 3.6242,-0.22506 7.0894,-0.32019 10.37301,1.00954 1.125,0.52105 1.91667,1.2375 2.375,2.14934 0.47917,0.89013 0.71875,1.92137 0.71875,3.09374 0,1.36776 -0.30208,2.58355 -0.90625,3.64735 -0.58333,1.04211 -1.64583,1.86711 -3.1875,2.475 -2.96496,1.18816 -6.12831,0.74143 -9.21138,0.24711 -3.08307,-0.49432 -3.78583,-12.39701 -0.16163,-12.62208 z"
             sodipodi:nodetypes="cccsscccccscccsczccscczz" />
          <path
             style="font-weight:bold;font-size:64px;line-height:0.6;font-family:Corbel;-inkscape-font-specification:'Corbel Bold';text-align:center;letter-spacing:2.5px;text-anchor:middle;display:inline;fill:#98a882;stroke:none;stroke-linecap:round;stroke-linejoin:round;paint-order:stroke fill markers"
             d="m 382.21242,630.66801 c 0,-1.13542 -0.26042,-1.91667 -0.78125,-2.5625 -1.29305,-1.5696 -3.25617,-2.1459 -5.15625,-2.625 -1.10417,-0.27083 -2.27083,-0.53125 -3.5,-0.78125 -5.79199,-1.26236 -7.46761,-2.44994 -8.5625,-3.28125 -1.125,-0.875 -2.02083,-1.97917 -2.6875,-3.3125 -0.66667,-1.33333 -1,-3 -1,-5 0,-2.20833 0.39102,-4.12235 1.15625,-5.75 1.79938,-3.8273 4.94096,-5.63337 7.78125,-6.46875 1.79167,-0.54167 4.17122,-0.8125 6.03125,-0.8125 1.86003,0 9.39796,1.0181 12.53125,2.34375 3.13329,1.32565 2.49285,7.82768 0,6.5625 -3.31908,-1.68451 -13.37274,-3.93901 -17.6875,-1.0625 -1.35417,0.91667 -2.03125,2.29167 -2.03125,4.125 0,1.0625 0.21875,1.9375 0.65625,2.625 0.45833,0.6875 1.07292,1.26042 1.84375,1.71875 0.77083,0.4375 1.65625,0.79167 2.65625,1.0625 1,0.27083 2.0625,0.52083 3.1875,0.75 1.77083,0.375 3.45833,0.8125 5.0625,1.3125 1.625,0.47917 3.0625,1.15625 4.3125,2.03125 1.25,0.875 2.23958,2.02083 2.96875,3.4375 0.72917,1.39583 1.09375,3.1875 1.09375,5.375 0,2.25 -0.41667,4.19792 -1.25,5.84375 -0.83333,1.64583 -2.02083,3.01042 -3.5625,4.09375 -1.52083,1.0625 -3.375,1.85417 -5.5625,2.375 -2.1875,0.52083 -4.58333,0.78125 -7.1875,0.78125 -2.27083,0 -4.51042,-0.22917 -6.71875,-0.6875 -2.1875,-0.4375 -4.63905,-1.20073 -5.46875,-1.875 -0.8297,-0.67427 -1.72854,-5.21469 0,-6.46875 2.09439,-1.51948 4.92154,4.00647 15.65625,2.28125 1.87384,-0.33461 4.10002,-1.12711 5.375,-2.96875 0.5625,-0.83333 0.84375,-1.92708 0.84375,-3.0625 z"
             id="path14"
             sodipodi:nodetypes="zccccsssczzzcsccsccscsscssczzccz" />
          <path
             style="font-weight:bold;font-size:64px;line-height:0.6;font-family:Corbel;-inkscape-font-specification:'Corbel Bold';text-align:center;letter-spacing:2.5px;text-anchor:middle;display:inline;fill:#98a882;stroke:none;stroke-linecap:round;stroke-linejoin:round;paint-order:stroke fill markers"
             d="m 408.0698,636.26176 c 0.14826,5.10475 20.5625,0 20.5625,0 v 6.40625 h -28.21875 v -41.8125 h 27.09375 v 6.40625 c 0,0 -19.10499,-4.858 -19.4375,0 -0.33251,4.858 -0.43942,6.70959 0,10.8125 0.43942,4.10291 16.6875,0 16.6875,0 v 6.40625 c 0,0 -16.34942,-4.64807 -16.6875,0 -0.33808,4.64807 -0.14826,6.6765 0,11.78125 z"
             id="path28-1"
             sodipodi:nodetypes="zcccccczzcczz" />
          <path
             d="m 568.78259,642.66801 c -0.26678,-0.26678 0,-0.87109 0,-1.30664 v -1.30664 -1.30664 -1.30664 -1.30664 -1.30664 -1.30664 -1.30665 -1.30664 -1.30664 -1.30664 -1.30664 -1.30664 -1.30664 -1.30664 -1.30664 -1.30664 -1.30664 -1.30664 -1.30664 -1.30664 -1.30664 -1.30664 -1.30665 -1.30664 -1.30664 -1.30664 -1.30664 -1.30664 -1.30664 -1.30664 c 0,-0.43555 -0.26678,-1.03986 0,-1.30664 0.26678,-0.26678 0.63802,0 0.95703,0 h 0.95703 0.95703 0.95704 0.95703 0.95703 0.95703 c 0.31901,0 0.69025,-0.26678 0.95703,0 0.26678,0.26678 0,0.87109 0,1.30664 v 1.30664 1.30664 1.30664 1.30664 1.30664 1.30664 1.30664 1.30665 1.30664 1.30664 1.30664 1.30664 1.30664 1.30664 1.30664 1.30664 1.30664 1.30664 1.30664 1.30664 1.30664 1.30664 1.30664 1.30665 1.30664 1.30664 1.30664 1.30664 1.30664 1.30664 c 0,0.43555 0.26678,1.03986 0,1.30664 -0.26678,0.26678 -0.63802,0 -0.95703,0 h -0.95703 -0.95703 -0.95703 -0.95703 -0.95704 -0.95703 c -0.31901,0 -0.69025,0.26678 -0.95703,0 z"
             id="text58"
             style="font-weight:bold;font-size:64px;line-height:0.6;font-family:Corbel;-inkscape-font-specification:'Corbel Bold';text-align:center;letter-spacing:-2px;text-anchor:middle;fill:#98a882;stroke:none;stroke-width:1.2;stroke-linecap:round;stroke-linejoin:round;paint-order:stroke fill markers"
             aria-label="I"
             sodipodi:nodetypes="zzccccccccccccccccccccccccccccczzzccccczzzccccccccccccccccccccccccccccczzzccccczz" />
        </g>
      </g>
    </g>
  </g>
</svg>
